<?xml version="1.0" encoding="UTF-8"?>
<svg version="1.1" xmlns="http://www.w3.org/2000/svg" width="512" height="512">
<path d="M0 0 C8.90609091 6.04341883 15.04257188 13.36947401 19.03125 23.3046875 C20.16554443 23.31870605 20.16554443 23.31870605 21.32275391 23.33300781 C24.76790134 23.3868795 28.21171562 23.47049591 31.65625 23.5546875 C33.44095703 23.57595703 33.44095703 23.57595703 35.26171875 23.59765625 C43.62426028 23.8312468 47.35437918 24.72719157 53.34375 30.5546875 C55.9330032 34.77421123 56.57111367 38.67225491 55.58984375 43.45703125 C54.08570487 48.07258883 52.25254657 50.69150391 48.03125 53.3046875 C44.3223302 55.0640519 41.59088373 55.49962497 37.50390625 55.33203125 C26.2830011 54.5119252 26.2830011 54.5119252 16.4375 58.49609375 C15.03192665 61.29246467 15.03192665 61.29246467 14.06640625 64.3203125 C11.38395249 72.0538773 4.10483655 76.67306122 -2.90625 80.2421875 C-8.45208785 82.90208487 -13.82906671 84.7379475 -19.96875 85.3046875 C-20.69191406 85.37429687 -21.41507813 85.44390625 -22.16015625 85.515625 C-33.94614201 86.06381038 -45.36551922 81.64768023 -54.4453125 74.30078125 C-58.60598573 70.41145627 -61.40469417 66.64416669 -64.10424805 61.62768555 C-64.64156052 60.6323027 -65.17887299 59.63691986 -65.73246765 58.6113739 C-66.14044083 57.85016739 -66.548414 57.08896088 -66.96875 56.3046875 C-76.21032964 56.18795544 -85.45164889 56.09955324 -94.69380951 56.04562664 C-98.98705911 56.01972207 -103.27979807 55.98468293 -107.57275391 55.92749023 C-111.72902822 55.87247585 -115.88481682 55.84312381 -120.04142761 55.83030128 C-121.61361827 55.82118401 -123.18578754 55.80338721 -124.75776672 55.77603722 C-143.17604979 55.46883558 -158.49913529 60.13777372 -172.21875 72.9921875 C-177.16800183 78.1928299 -181.05662281 83.73429108 -183.96875 90.3046875 C-184.3203418 91.08054199 -184.67193359 91.85639648 -185.03417969 92.65576172 C-189.16393603 103.47939423 -188.57163378 114.79280366 -188.49023438 126.21533203 C-188.46879848 129.79658741 -188.49010464 133.37583698 -188.515625 136.95703125 C-188.64315241 153.55093899 -188.64315241 153.55093899 -183.96875 169.3046875 C-183.52934082 170.28550293 -183.52934082 170.28550293 -183.08105469 171.28613281 C-175.8938453 185.83959239 -164.17648789 195.74359369 -148.96875 201.3046875 C-143.71407962 202.73799164 -138.35910951 203.56963848 -132.96875 204.3046875 C-132.70964844 203.42554688 -132.45054687 202.54640625 -132.18359375 201.640625 C-128.2099373 190.72904104 -119.46670266 183.01590436 -109.25390625 177.9609375 C-96.4430039 172.56687335 -83.7827861 173.1050221 -70.96875 178.3046875 C-59.30128964 183.95916899 -51.69292271 192.29993417 -46.96875 204.3046875 C-46.30835976 204.30615406 -45.64796951 204.30762062 -44.96756744 204.30913162 C-28.83053892 204.34633174 -12.69375894 204.40551949 3.44309235 204.48859024 C11.24705814 204.52824482 19.05092507 204.56070575 26.85498047 204.57568359 C33.66427331 204.58877111 40.4733474 204.6159143 47.28251696 204.65930057 C50.88137635 204.68175755 54.47996754 204.6976078 58.0789032 204.69657135 C86.92477707 204.69721074 86.92477707 204.69721074 100.03125 209.3046875 C101.11635864 209.68240295 102.20146729 210.06011841 103.31945801 210.44927979 C126.50041464 218.97144094 143.05429963 237.07610104 153.5 258.93359375 C155.03125 262.3046875 155.03125 262.3046875 156.03125 265.3046875 C158.51470772 266.53013841 158.51470772 266.53013841 161.53125 267.5546875 C173.49251032 272.29941547 181.32414541 280.2716222 186.953125 291.6796875 C191.66867023 303.16101502 191.92700623 317.03163747 187.35546875 328.62890625 C181.45347901 340.55475573 173.12840751 348.03561563 161.03125 353.3046875 C159.71447266 353.70494141 159.71447266 353.70494141 158.37109375 354.11328125 C155.19456056 355.73071468 154.90539972 357.21792563 153.78125 360.5546875 C145.34636791 382.45394659 128.09796595 398.71746053 107.08203125 408.578125 C101.25754698 411.16087733 95.23607033 412.8690624 89.03125 414.3046875 C88.27938919 414.47971298 87.52752838 414.65473846 86.75288391 414.83506775 C83.63224443 415.37353618 80.66385952 415.46696271 77.49682617 415.51000977 C76.19585495 415.52995499 74.89488373 415.54990021 73.55448914 415.57044983 C72.1444002 415.58743039 70.73431004 415.60430933 69.32421875 415.62109375 C67.87404308 415.64168125 66.42387318 415.66267818 64.97370911 415.68406677 C61.16798585 415.73910205 57.36221011 415.78859261 53.55639648 415.83691406 C49.66840985 415.88726501 45.78049887 415.94287993 41.89257812 415.99804688 C34.27219959 416.10540142 26.65175789 416.2068962 19.03125 416.3046875 C18.52648384 417.3361087 18.52648384 417.3361087 18.01152039 418.3883667 C17.56645645 419.28984436 17.12139252 420.19132202 16.6628418 421.12011719 C16.00338814 422.46091339 16.00338814 422.46091339 15.33061218 423.82879639 C9.70350427 434.55106201 -0.27808671 441.07842288 -11.53320312 444.69165039 C-15.59569198 445.71419545 -19.54509822 445.83679564 -23.71875 445.8046875 C-24.59055908 445.79896729 -25.46236816 445.79324707 -26.3605957 445.78735352 C-39.11348356 445.43752367 -48.62739288 440.4108524 -57.67578125 431.65234375 C-60.68312779 428.41659114 -62.70442385 425.04083218 -64.640625 421.07421875 C-65.07987305 420.17936768 -65.51912109 419.2845166 -65.97167969 418.36254883 C-66.30071289 417.68345459 -66.62974609 417.00436035 -66.96875 416.3046875 C-68.20963379 416.2953418 -69.45051758 416.28599609 -70.72900391 416.27636719 C-75.34752866 416.23639467 -79.96539238 416.17061543 -84.58349609 416.09716797 C-86.57950325 416.06900047 -88.57562106 416.04776498 -90.57177734 416.03369141 C-93.44686364 416.01220347 -96.32062529 415.96552324 -99.1953125 415.9140625 C-100.08304352 415.91283386 -100.97077454 415.91160522 -101.88540649 415.91033936 C-107.39359823 415.78110137 -110.59162708 414.96182708 -114.96875 411.3046875 C-118.51456036 407.26979985 -119.27235179 403.73807341 -119.18359375 398.36328125 C-118.70682026 393.79492433 -116.74312114 391.00351024 -113.40625 387.9921875 C-110.27456572 385.82409838 -108.63189136 385.17786711 -104.88623047 385.09936523 C-104.04550995 385.07942001 -103.20478943 385.05947479 -102.33859253 385.03892517 C-100.97602829 385.01385643 -100.97602829 385.01385643 -99.5859375 384.98828125 C-98.65653351 384.96750015 -97.72712952 384.94671906 -96.76956177 384.92530823 C-93.7943679 384.85981104 -90.81908423 384.80092698 -87.84375 384.7421875 C-85.82941772 384.69900244 -83.81509459 384.65538816 -81.80078125 384.61132812 C-76.85686337 384.50412947 -71.91285497 384.40286249 -66.96875 384.3046875 C-66.65494385 383.64299561 -66.3411377 382.98130371 -66.01782227 382.29956055 C-59.84598322 369.57312372 -51.24884131 360.9568252 -37.703125 356.14453125 C-25.44308637 353.38730499 -12.01542056 354.11043861 -0.96875 360.3046875 C6.82806881 365.27811283 12.64654234 371.22460688 16.703125 379.53515625 C17.14237305 380.43000732 17.58162109 381.3248584 18.03417969 382.24682617 C18.36321289 382.92592041 18.69224609 383.60501465 19.03125 384.3046875 C26.1804698 384.35586858 33.32964144 384.39062066 40.47900391 384.41455078 C42.90545416 384.42453883 45.33189259 384.4381339 47.75830078 384.45556641 C72.01261345 384.62531664 93.34594436 384.07893061 112.40234375 367.04296875 C116.73223154 362.42234509 120.32885028 357.02586544 123.03125 351.3046875 C122.39058594 350.82 121.74992187 350.3353125 121.08984375 349.8359375 C109.33589492 340.72706509 102.0410574 331.96978552 99.59375 316.9296875 C98.20068806 303.58063762 100.94600543 292.22656952 109.1796875 281.5078125 C113.36677279 276.67765951 117.64647292 272.74177925 123.03125 269.3046875 C114.48461847 254.0271923 103.71747155 244.25418758 86.91015625 238.58984375 C77.84943654 236.09222081 68.29745271 236.14920928 58.97216797 236.09936523 C57.81003281 236.08946564 56.64789764 236.07956604 55.45054626 236.06936646 C51.64153013 236.03799174 47.83250157 236.01308981 44.0234375 235.98828125 C41.36971639 235.96769093 38.71600058 235.94673905 36.06228638 235.92530823 C29.81172501 235.8756176 23.56113929 235.83059227 17.31053078 235.78728586 C10.1882776 235.73771004 3.06606793 235.68286811 -4.05614305 235.62760627 C-18.69363744 235.51414953 -33.33117515 235.40723305 -47.96875 235.3046875 C-48.10667969 236.08030029 -48.24460938 236.85591309 -48.38671875 237.6550293 C-50.24871617 246.13164757 -58.2195726 253.35308513 -64.96875 258.3046875 C-76.14675863 265.12604991 -87.87968883 267.05930683 -100.84375 264.8046875 C-113.87232529 261.2218293 -124.17200669 253.29456193 -130.875 241.6015625 C-131.88029905 239.4904345 -132.5076355 237.58930025 -132.96875 235.3046875 C-133.5771875 235.35109375 -134.185625 235.3975 -134.8125 235.4453125 C-156.02148659 236.31862371 -176.81313618 225.91597678 -192.28125 211.9921875 C-207.13723172 198.04342274 -219.04650244 177.1875889 -220.11592102 156.45095825 C-220.12576523 155.46441254 -220.13560944 154.47786682 -220.14575195 153.46142578 C-220.15858719 152.33229767 -220.17142242 151.20316956 -220.18464661 150.03982544 C-220.19203354 148.83043304 -220.19942047 147.62104065 -220.20703125 146.375 C-220.215103 145.11186981 -220.22317474 143.84873962 -220.23149109 142.54733276 C-220.24530672 139.87266403 -220.25632819 137.19811737 -220.26391602 134.5234375 C-220.27272298 131.81194216 -220.29347778 129.10096817 -220.32543945 126.38964844 C-220.65426032 96.29978344 -215.77603753 71.608876 -194.01171875 49.19140625 C-178.10693509 33.62003437 -156.5171136 24.36175081 -134.28930664 24.09936523 C-133.19049667 24.08451584 -133.19049667 24.08451584 -132.06948853 24.06936646 C-129.67265949 24.03803525 -127.27581071 24.01310759 -124.87890625 23.98828125 C-123.20738744 23.96768714 -121.53587355 23.94669006 -119.86436462 23.92530823 C-115.48326626 23.87034114 -111.10212288 23.82082093 -106.72094727 23.77246094 C-102.24296097 23.72205971 -97.76503934 23.66647123 -93.28710938 23.61132812 C-84.51437773 23.50405717 -75.74159168 23.40254437 -66.96875 23.3046875 C-66.46078888 22.26945953 -66.46078888 22.26945953 -65.94256592 21.21331787 C-65.49584534 20.30986633 -65.04912476 19.40641479 -64.58886719 18.47558594 C-64.14710144 17.57918396 -63.70533569 16.68278198 -63.25018311 15.75921631 C-58.12730508 5.94656855 -49.14042381 -0.44412993 -38.90625 -4.0703125 C-25.77669316 -7.71656049 -11.9513684 -6.82486037 0 0 Z M-35.78125 30.8671875 C-38.51486446 34.33610964 -38.63134132 37.59543574 -38.37890625 41.90625 C-37.62118503 46.33711503 -35.81820708 48.95851188 -32.203125 51.58984375 C-28.04802086 54.00274871 -24.60834837 54.90051553 -19.859375 53.984375 C-15.92308775 52.56926347 -13.01401024 50.03714305 -10.83984375 46.43359375 C-9.19493504 42.41352538 -9.12026788 38.54076616 -9.96875 34.3046875 C-12.52879386 30.10867978 -15.25605001 26.8755875 -19.96875 25.3046875 C-27.26175964 24.83417075 -30.30023414 25.87337305 -35.78125 30.8671875 Z M-102.40234375 211.0703125 C-104.76562124 215.22444734 -105.506986 218.71719121 -104.57421875 223.41796875 C-103.13740803 227.89525636 -101.03756026 230.59214733 -97.15625 233.1796875 C-92.24918432 234.91159303 -88.66377524 234.93616749 -83.78125 233.1171875 C-79.74281657 230.51464151 -77.48835221 227.86349414 -75.96875 223.3046875 C-75.49266134 218.35336548 -75.99955057 215.02027777 -78.63671875 210.8828125 C-81.66015259 207.30079705 -85.27605045 205.59280657 -89.90625 204.8046875 C-94.86630508 205.61449241 -99.15147552 207.06651838 -102.40234375 211.0703125 Z M132.15625 302.4296875 C130.46640749 306.74817392 130.37164017 310.7313927 131.03125 315.3046875 C133.19423837 319.71077493 135.42805479 322.5034372 140.03125 324.3046875 C145.07450384 324.98894807 148.86201884 324.8786737 153.46875 322.6171875 C156.82781012 319.58584056 158.72480631 317.56329102 159.34765625 312.97265625 C159.61338652 307.25516941 158.99972152 303.70218297 155.03125 299.3046875 C151.19411804 295.91898283 147.39723538 295.79177578 142.46875 295.953125 C137.80598854 296.62563867 135.17934708 299.00351081 132.15625 302.4296875 Z M-35.96875 391.3046875 C-38.7266593 395.72844806 -38.61597237 400.2467645 -37.96875 405.3046875 C-35.80576163 409.71077493 -33.57194521 412.5034372 -28.96875 414.3046875 C-23.92549616 414.98894807 -20.13798116 414.8786737 -15.53125 412.6171875 C-12.17218988 409.58584056 -10.27519369 407.56329102 -9.65234375 402.97265625 C-9.38661348 397.25516941 -10.00027848 393.70218297 -13.96875 389.3046875 C-17.76791666 385.95248162 -21.56943965 385.73679764 -26.4609375 385.8828125 C-30.42698817 386.54999859 -33.25271195 388.37260097 -35.96875 391.3046875 Z " fill="#000000" transform="translate(279.96875,29.6953125)"/>
<path d="M0 0 C1.10612137 -0.00852997 2.21224274 -0.01705994 3.35188293 -0.02584839 C4.56596832 -0.02494202 5.78005371 -0.02403564 7.03092957 -0.02310181 C8.3092012 -0.02981903 9.58747284 -0.03653625 10.90447998 -0.04345703 C14.41287687 -0.06113731 17.92117622 -0.06581332 21.42961335 -0.0670886 C23.62222131 -0.06850989 25.81480444 -0.07277911 28.00740623 -0.07808304 C35.65881806 -0.09659171 43.31016016 -0.10475282 50.96159363 -0.10317993 C58.08996264 -0.10197907 65.21802859 -0.12306822 72.34632093 -0.15466726 C78.46873198 -0.18083853 84.59104414 -0.19154684 90.71351069 -0.19026911 C94.36906023 -0.18975962 98.02434062 -0.19543507 101.67983437 -0.21662521 C105.75931547 -0.23962671 109.83812023 -0.2304816 113.91764832 -0.21841431 C115.12566101 -0.22965332 116.33367371 -0.24089233 117.57829285 -0.25247192 C123.88942138 -0.20497074 127.92172644 -0.07748706 132.66838074 4.26742554 C135.97128651 8.65476174 136.60542429 12.3706357 136.45353699 17.77914429 C134.75163121 25.34034756 129.30623167 31.23195736 124.66838074 37.26742554 C122.83202593 39.70567741 121.00731022 42.15147866 119.19645691 44.60873413 C118.02726804 46.19258933 116.84413549 47.76626222 115.64616394 49.32846069 C115.11208923 50.04566284 114.57801453 50.76286499 114.02775574 51.50180054 C113.54790222 52.1331189 113.06804871 52.76443726 112.57365417 53.41488647 C111.49257768 55.2240247 111.49257768 55.2240247 111.84098816 57.25643921 C112.79701895 59.58008207 113.97740507 61.24594282 115.54728699 63.20883179 C116.13550232 63.95262085 116.72371765 64.69640991 117.32975769 65.46273804 C117.9571283 66.24390991 118.5844989 67.02508179 119.23088074 67.82992554 C120.50819157 69.4448079 121.78423766 71.06069145 123.05900574 72.67758179 C123.67840027 73.46149292 124.2977948 74.24540405 124.93595886 75.05307007 C136.80681078 90.22621365 136.80681078 90.22621365 135.66838074 101.26742554 C133.66598423 105.27221854 131.48839196 107.92612833 127.66838074 110.26742554 C124.83128106 111.21312543 123.10705588 111.39106038 120.16955566 111.38768005 C119.24828888 111.38905472 118.32702209 111.39042938 117.37783813 111.3918457 C116.36939346 111.38825043 115.36094879 111.38465515 114.32194519 111.38095093 C112.72657928 111.38116997 112.72657928 111.38116997 111.09898376 111.38139343 C107.57652257 111.38069566 104.05411397 111.37290954 100.53166199 111.36508179 C98.09214303 111.36321713 95.65262371 111.36179345 93.21310425 111.36079407 C86.78676828 111.35697267 80.36045486 111.34714558 73.93412781 111.33609009 C66.22654944 111.32407117 58.51896354 111.31947193 50.81137848 111.31363678 C39.09703022 111.30393366 27.38273142 111.28477442 15.66838074 111.26742554 C15.66838074 133.04742554 15.66838074 154.82742554 15.66838074 177.26742554 C19.62838074 177.26742554 23.58838074 177.26742554 27.66838074 177.26742554 C34.59312479 178.84521532 37.73870748 180.37291565 41.66838074 186.26742554 C43.11921576 190.61993061 43.52181003 194.84856309 41.98478699 199.20492554 C39.79708411 203.4169344 37.16326438 206.46901701 32.66838074 208.26742554 C27.88505359 208.87640452 23.10735014 208.83105093 18.29338074 208.79867554 C16.88143141 208.80137339 15.4694839 208.80525824 14.05754089 208.81027222 C11.10537441 208.81615365 8.15369366 208.80764899 5.20158386 208.78890991 C1.42865838 208.76612016 -2.3431288 208.77925067 -6.11601257 208.80319977 C-9.02954086 208.81769508 -11.9428019 208.81303491 -14.8563385 208.8026886 C-16.2469242 208.80003157 -17.63753464 208.8032549 -19.02809143 208.81260681 C-32.45354896 208.88309523 -32.45354896 208.88309523 -37.33161926 204.26742554 C-40.87742962 200.23253789 -41.63522105 196.70081144 -41.54646301 191.32601929 C-41.08640518 186.91782882 -39.15011097 184.08591724 -36.08161926 181.01742554 C-31.03087109 177.80331306 -26.4727064 177.16809935 -20.58943176 177.22055054 C-19.60346008 177.22731812 -18.6174884 177.23408569 -17.60163879 177.24105835 C-16.47797913 177.25411011 -16.47797913 177.25411011 -15.33161926 177.26742554 C-15.33346285 176.43381972 -15.33530643 175.60021391 -15.33720589 174.74134731 C-15.38138724 154.45171742 -15.41447698 134.16209582 -15.43524361 113.87242794 C-15.44555328 104.06047271 -15.45960775 94.2485496 -15.48249817 84.43661499 C-15.50244145 75.883882 -15.51533794 67.33117229 -15.51979625 58.77841669 C-15.52240203 54.25040561 -15.5285204 49.72246109 -15.54307938 45.19447136 C-15.55667808 40.93049437 -15.56083727 36.66661121 -15.55783463 32.40261459 C-15.55838376 30.83975654 -15.56234757 29.27689528 -15.57003021 27.71405602 C-15.58002742 25.57502903 -15.57757096 23.43635316 -15.5721283 21.2973175 C-15.57397188 20.101752 -15.57581547 18.9061865 -15.57771492 17.67439175 C-15.19784476 12.41544163 -14.37758337 8.4743072 -10.89411926 4.45492554 C-7.02589475 1.15278266 -5.0298281 0.01750878 0 0 Z M15.66838074 30.26742554 C15.66838074 46.76742554 15.66838074 63.26742554 15.66838074 80.26742554 C39.75838074 80.26742554 63.84838074 80.26742554 88.66838074 80.26742554 C86.68838074 77.62742554 84.70838074 74.98742554 82.66838074 72.26742554 C75.66838074 62.72864147 75.66838074 62.72864147 75.66838074 57.26742554 C76.84112847 50.07457279 79.90462924 45.5549956 84.29338074 39.82992554 C85.4955521 38.2282985 86.69616517 36.6255002 87.89494324 35.02133179 C88.42684265 34.32338501 88.95874207 33.62543823 89.50675964 32.90634155 C90.76475686 31.4662552 90.76475686 31.4662552 90.66838074 30.26742554 C65.91838074 30.26742554 41.16838074 30.26742554 15.66838074 30.26742554 Z " fill="#000000" transform="translate(376.3316192626953,-0.267425537109375)"/>
<path d="M0 0 C19.22796837 -0.87732175 38.78329445 6.98553074 53.2421875 19.34375 C68.30837082 33.66145306 76.95513425 52.25374492 78.0546875 73.0078125 C78.75490697 123.24855937 56.46325229 172.63313643 23.44335938 209.59570312 C22.10660424 211.09790756 20.79110382 212.61894383 19.4765625 214.140625 C18.69796875 215.03265625 17.919375 215.9246875 17.1171875 216.84375 C16.11365234 217.99423828 16.11365234 217.99423828 15.08984375 219.16796875 C11.10786097 223.058236 7.81847522 224.60912442 2.2421875 224.71875 C-4.22960697 224.52095677 -7.47494589 222.69975145 -11.9453125 218.15625 C-12.62722656 217.46402344 -13.30914062 216.77179688 -14.01171875 216.05859375 C-41.75525216 186.32983434 -60.70179356 150.74161987 -69.9453125 111.15625 C-70.21214844 110.05531006 -70.21214844 110.05531006 -70.484375 108.93212891 C-72.89060034 98.66509005 -73.26552183 88.42889834 -73.3828125 77.90625 C-73.41640869 76.04129883 -73.41640869 76.04129883 -73.45068359 74.13867188 C-73.4211301 62.39815887 -70.71774238 51.47208781 -65.3203125 41.03125 C-64.98112793 40.36802734 -64.64194336 39.70480469 -64.29248047 39.02148438 C-55.41243367 22.3598706 -39.97801798 9.56021592 -21.96484375 3.80078125 C-14.67735668 1.68210424 -7.52489282 0.60440906 0 0 Z M-31.97265625 46.484375 C-42.5774435 60.84808684 -43.63116728 76.03210264 -41.56298828 93.359375 C-37.20443064 121.6442805 -26.37009045 147.79361817 -9.9453125 171.15625 C-9.48382813 171.81544434 -9.02234375 172.47463867 -8.546875 173.15380859 C-4.52841698 178.88688312 -4.52841698 178.88688312 0.0546875 184.15625 C4.13968425 184.62609617 4.13968425 184.62609617 6.4296875 181.796875 C7.32162911 180.67998824 8.19534383 179.54840775 9.0546875 178.40625 C9.52890137 177.78572754 10.00311523 177.16520508 10.49169922 176.52587891 C32.05868297 147.59352681 50.55533554 106.64001852 46.5546875 69.65625 C44.41928267 58.06001185 38.59995723 47.25184874 29.0546875 40.15625 C8.75080623 27.79323096 -14.9996529 28.08373585 -31.97265625 46.484375 Z " fill="#000000" transform="translate(72.9453125,287.84375)"/>
<path d="M0 0 C3.61857331 3.02950323 5.19664978 5.5509031 6.5 10.0625 C6.74120989 14.16306812 6.47128154 17.51149119 4.6875 21.25 C1.68104042 24.5961317 -1.87316888 27.98237554 -6.484375 28.48828125 C-13.4523573 28.68887468 -16.80109985 27.2770691 -22.125 22.6875 C-25.08703656 19.1018768 -24.70675629 14.45577588 -24.6484375 10.046875 C-24.12937632 5.72538892 -22.61282808 3.06287042 -19.3125 0.25 C-12.86148792 -3.71138908 -6.66874631 -3.52311126 0 0 Z " fill="#000000" transform="translate(84.3125,350.75)"/>
</svg>
