<?xml version="1.0" standalone="no"?>
<!DOCTYPE svg PUBLIC "-//W3C//DTD SVG 20010904//EN"
 "http://www.w3.org/TR/2001/REC-SVG-20010904/DTD/svg10.dtd">
<svg version="1.0" xmlns="http://www.w3.org/2000/svg"
 width="512.000000pt" height="512.000000pt" viewBox="0 0 512.000000 512.000000"
 preserveAspectRatio="xMidYMid meet">

<g transform="translate(0.000000,512.000000) scale(0.100000,-0.100000)"
fill="#000000" stroke="none">
<path d="M2430 5114 c-245 -28 -400 -72 -595 -169 -439 -219 -749 -627 -857
-1125 -33 -154 -33 -421 0 -569 101 -452 429 -1198 925 -2106 245 -450 642
-1135 657 -1135 15 0 412 685 657 1135 496 908 824 1654 925 2106 33 148 33
415 0 569 -93 431 -330 786 -685 1024 -198 133 -388 209 -632 252 -80 14 -329
26 -395 18z m314 -375 c511 -68 942 -482 1042 -1004 20 -107 23 -317 6 -421
-86 -519 -472 -919 -992 -1031 -61 -13 -128 -18 -240 -18 -112 0 -179 5 -240
18 -518 111 -903 510 -991 1026 -18 102 -15 321 5 426 107 556 572 974 1128
1014 105 7 168 5 282 -10z"/>
<path d="M2492 4440 c-185 -38 -295 -224 -237 -399 20 -62 87 -139 149 -172
l46 -24 0 -443 0 -442 -42 6 c-71 11 -168 64 -234 129 -96 95 -96 91 -9 173
57 55 70 72 57 76 -38 11 -523 78 -528 73 -5 -5 54 -412 72 -500 l6 -27 70 65
c39 36 74 65 77 65 4 0 45 -34 92 -76 153 -139 249 -192 397 -220 157 -30 330
-5 480 67 69 33 103 59 196 149 l112 109 74 -74 c41 -41 77 -75 80 -75 7 0 85
529 79 534 -2 1 -127 -16 -277 -38 l-273 -40 72 -72 72 -72 -88 -91 c-67 -69
-105 -100 -158 -126 -38 -19 -80 -35 -93 -35 l-24 0 0 444 0 444 45 22 c146
71 208 266 129 410 -65 119 -210 187 -342 160z m132 -154 c18 -8 46 -31 62
-52 69 -90 17 -217 -99 -244 -79 -17 -165 33 -188 110 -39 129 96 240 225 186z"/>
</g>
</svg>
