<?xml version="1.0" standalone="no"?>
<!DOCTYPE svg PUBLIC "-//W3C//DTD SVG 20010904//EN"
 "http://www.w3.org/TR/2001/REC-SVG-20010904/DTD/svg10.dtd">
<svg version="1.0" xmlns="http://www.w3.org/2000/svg"
 width="512.000000pt" height="512.000000pt" viewBox="0 0 512.000000 512.000000"
 preserveAspectRatio="xMidYMid meet">

<g transform="translate(0.000000,512.000000) scale(0.100000,-0.100000)"
fill="#000000" stroke="none">
<path d="M2880 4320 l0 -800 960 0 960 0 0 -1760 0 -1760 160 0 160 0 0 2560
0 2560 -1120 0 -1120 0 0 -800z m640 320 l0 -160 -160 0 -160 0 0 160 0 160
160 0 160 0 0 -160z m640 0 l0 -160 -160 0 -160 0 0 160 0 160 160 0 160 0 0
-160z m640 0 l0 -160 -160 0 -160 0 0 160 0 160 160 0 160 0 0 -160z m-1280
-640 l0 -160 -160 0 -160 0 0 160 0 160 160 0 160 0 0 -160z m640 0 l0 -160
-160 0 -160 0 0 160 0 160 160 0 160 0 0 -160z m640 0 l0 -160 -160 0 -160 0
0 160 0 160 160 0 160 0 0 -160z"/>
<path d="M800 3520 l0 -160 160 0 160 0 0 -118 0 -117 -67 -24 c-136 -47 -327
-154 -447 -250 l-40 -32 -143 143 -143 143 -112 -113 -113 -112 144 -144 144
-144 -66 -99 c-325 -488 -364 -1092 -102 -1613 227 -452 646 -762 1160 -858
129 -24 407 -23 540 2 669 123 1180 634 1301 1301 28 150 25 434 -5 575 -47
222 -134 428 -254 603 l-60 89 144 144 144 144 -113 112 -112 113 -143 -143
-142 -142 -78 58 c-112 84 -225 149 -346 199 -58 23 -112 43 -118 43 -10 0
-13 31 -13 120 l0 120 160 0 160 0 0 160 0 160 -800 0 -800 0 0 -160z m960
-242 l0 -83 -160 0 -160 0 0 83 0 82 160 0 160 0 0 -82z m29 -414 c552 -81
994 -523 1075 -1075 30 -200 13 -394 -49 -584 -65 -200 -160 -352 -314 -506
-201 -202 -439 -323 -714 -363 -700 -104 -1350 380 -1453 1084 -57 393 78 802
358 1077 95 93 120 114 203 170 157 105 378 186 565 206 88 9 232 6 329 -9z"/>
<path d="M1440 2161 l0 -401 -401 0 -402 0 6 -157 c10 -297 88 -484 282 -678
135 -134 260 -207 445 -257 118 -32 336 -32 457 0 294 76 533 278 652 549 57
131 75 221 75 383 1 153 -16 243 -66 365 -93 223 -290 423 -507 515 -127 54
-211 71 -383 77 l-158 6 0 -402z m450 7 c221 -107 362 -351 347 -603 -17 -287
-226 -532 -502 -590 -288 -60 -584 85 -709 348 -19 39 -37 82 -41 95 l-6 22
390 0 391 0 0 391 0 390 23 -6 c12 -3 60 -25 107 -47z"/>
</g>
</svg>
