<?xml version="1.0" encoding="UTF-8"?>
<!DOCTYPE svg PUBLIC "-//W3C//DTD SVG 1.1//EN" "http://www.w3.org/Graphics/SVG/1.1/DTD/svg11.dtd">
<svg xmlns="http://www.w3.org/2000/svg" version="1.1" width="512px" height="512px" style="shape-rendering:geometricPrecision; text-rendering:geometricPrecision; image-rendering:optimizeQuality; fill-rule:evenodd; clip-rule:evenodd" xmlns:xlink="http://www.w3.org/1999/xlink">
<g><path style="opacity:0.961" fill="#000000" d="M 511.5,104.5 C 511.5,113.167 511.5,121.833 511.5,130.5C 506.052,154.069 496.219,175.736 482,195.5C 463.534,220.973 442.534,244.307 419,265.5C 394.785,242.959 373.118,218.293 354,191.5C 342.793,174.899 334.459,156.899 329,137.5C 321.747,88.1634 340.581,52.9967 385.5,32C 432.88,17.348 470.714,30.1813 499,70.5C 504.885,81.333 509.052,92.6663 511.5,104.5 Z M 415.5,56.5 C 449.801,57.3914 471.301,74.3914 480,107.5C 480.831,115.888 480.497,124.221 479,132.5C 470.729,155.737 458.729,176.737 443,195.5C 435.693,204.641 427.86,213.307 419.5,221.5C 395.053,197.883 375.886,170.55 362,139.5C 352.373,106.04 362.539,80.5401 392.5,63C 399.992,59.7144 407.659,57.5477 415.5,56.5 Z"/></g>
<g><path style="opacity:0.962" fill="#000000" d="M 412.5,88.5 C 431.075,86.1956 443.242,93.8622 449,111.5C 451.359,129.797 443.859,141.963 426.5,148C 399.831,149.664 387.664,137.164 390,110.5C 393.455,98.8763 400.955,91.5429 412.5,88.5 Z"/></g>
<g><path style="opacity:0.965" fill="#000000" d="M 273.5,228.5 C 302.167,228.5 330.833,228.5 359.5,228.5C 359.5,238.833 359.5,249.167 359.5,259.5C 331.498,259.333 303.498,259.5 275.5,260C 248.61,266.934 237.776,284.101 243,311.5C 247.568,324.401 256.401,332.901 269.5,337C 303.453,338.306 337.453,338.973 371.5,339C 405.885,344.052 426.718,363.552 434,397.5C 437.633,434.927 422.299,460.927 388,475.5C 383.3,477.217 378.467,478.383 373.5,479C 299.501,479.5 225.501,479.667 151.5,479.5C 151.5,469.167 151.5,458.833 151.5,448.5C 224.501,448.667 297.501,448.5 370.5,448C 396.32,440.881 406.82,424.048 402,397.5C 396.344,382.174 385.51,373.008 369.5,370C 334.8,369.959 300.133,369.292 265.5,368C 235.791,360.291 217.624,341.457 211,311.5C 207.165,276.999 220.331,251.499 250.5,235C 258.071,232.028 265.738,229.861 273.5,228.5 Z"/></g>
<g><path style="opacity:0.96" fill="#000000" d="M -0.5,350.5 C -0.5,341.833 -0.5,333.167 -0.5,324.5C 6.06379,291.214 24.7305,267.381 55.5,253C 91.2849,239.76 123.952,245.093 153.5,269C 184.336,299.824 191.836,335.657 176,376.5C 162.393,404.725 145.059,430.392 124,453.5C 113.306,464.194 102.64,474.86 92,485.5C 57.5383,455.724 29.8717,420.724 9,380.5C 4.68694,370.733 1.52027,360.733 -0.5,350.5 Z M 87.5,276.5 C 121.277,277.458 142.777,294.125 152,326.5C 154.18,337.764 153.18,348.764 149,359.5C 135.114,390.55 115.947,417.883 91.5,441.5C 73.2145,423.051 57.3812,402.718 44,380.5C 35.7643,367.295 31.2643,352.962 30.5,337.5C 31.8512,310.645 44.8512,291.812 69.5,281C 75.4789,278.839 81.4789,277.339 87.5,276.5 Z"/></g>
<g><path style="opacity:0.962" fill="#000000" d="M 84.5,308.5 C 111.146,307.312 123.313,319.979 121,346.5C 114.797,363.526 102.63,370.693 84.5,368C 63.2927,359.733 56.7927,344.9 65,323.5C 69.6954,315.95 76.1954,310.95 84.5,308.5 Z"/></g>
</svg>
