<?xml version="1.0" standalone="no"?>
<!DOCTYPE svg PUBLIC "-//W3C//DTD SVG 20010904//EN"
 "http://www.w3.org/TR/2001/REC-SVG-20010904/DTD/svg10.dtd">
<svg version="1.0" xmlns="http://www.w3.org/2000/svg"
 width="512.000000pt" height="512.000000pt" viewBox="0 0 512.000000 512.000000"
 preserveAspectRatio="xMidYMid meet">

<g transform="translate(0.000000,512.000000) scale(0.100000,-0.100000)"
fill="#000000" stroke="none">
<path d="M2680 4895 l0 -225 -305 0 -305 0 0 -300 0 -300 -150 0 -150 0 0
-300 0 -300 -720 0 -720 0 0 -1585 0 -1585 -165 0 -165 0 0 -150 0 -150 2560
0 2560 0 0 150 0 150 -165 0 -165 0 0 985 0 985 -450 0 -450 0 0 900 0 900
-150 0 -150 0 0 300 0 300 -305 0 -305 0 0 225 0 225 -150 0 -150 0 0 -225z
m610 -825 l0 -300 150 0 150 0 0 -750 0 -750 -455 0 -455 0 0 -985 0 -985
-305 0 -305 0 0 1735 0 1735 150 0 150 0 0 300 0 300 460 0 460 0 0 -300z
m-1522 -2337 l2 -1433 -570 0 -570 0 0 1435 0 1435 568 -2 567 -3 3 -1432z
m2722 -598 l0 -835 -150 0 -150 0 0 665 0 665 -150 0 -150 0 0 -665 0 -665
-150 0 -150 0 0 665 0 665 -150 0 -150 0 0 -665 0 -665 -155 0 -155 0 0 835 0
835 755 0 755 0 0 -835z"/>
<path d="M2680 3920 l0 -150 150 0 150 0 0 150 0 150 -150 0 -150 0 0 -150z"/>
<path d="M2380 3320 l0 -150 150 0 150 0 0 150 0 150 -150 0 -150 0 0 -150z"/>
<path d="M2980 3320 l0 -150 150 0 150 0 0 150 0 150 -150 0 -150 0 0 -150z"/>
<path d="M2380 2720 l0 -150 150 0 150 0 0 150 0 150 -150 0 -150 0 0 -150z"/>
<path d="M2980 2720 l0 -150 150 0 150 0 0 150 0 150 -150 0 -150 0 0 -150z"/>
<path d="M1040 2720 l0 -150 150 0 150 0 0 150 0 150 -150 0 -150 0 0 -150z"/>
<path d="M1040 2080 l0 -150 150 0 150 0 0 150 0 150 -150 0 -150 0 0 -150z"/>
<path d="M1040 1430 l0 -151 148 3 147 3 3 148 3 147 -151 0 -150 0 0 -150z"/>
<path d="M1040 790 l0 -150 150 0 150 0 0 150 0 150 -150 0 -150 0 0 -150z"/>
</g>
</svg>
