<?xml version="1.0" standalone="no"?>
<!DOCTYPE svg PUBLIC "-//W3C//DTD SVG 20010904//EN"
 "http://www.w3.org/TR/2001/REC-SVG-20010904/DTD/svg10.dtd">
<svg version="1.0" xmlns="http://www.w3.org/2000/svg"
 width="512.000000pt" height="512.000000pt" viewBox="0 0 512.000000 512.000000"
 preserveAspectRatio="xMidYMid meet">

<g transform="translate(0.000000,512.000000) scale(0.100000,-0.100000)"
fill="#000000" stroke="none">
<path d="M415 4786 c-41 -18 -83 -69 -90 -109 -3 -18 -4 -982 -3 -2144 l3
-2112 21 -27 c11 -15 33 -37 48 -48 27 -20 39 -21 406 -21 367 0 379 1 406 21
15 11 37 33 48 48 21 27 21 28 24 1737 l2 1709 400 0 400 0 0 -480 0 -480 160
0 160 0 -2 909 c-3 901 -3 910 -24 937 -11 15 -33 37 -48 48 -27 21 -36 21
-954 23 -755 2 -933 0 -957 -11z m1665 -466 l0 -159 -509 -3 c-497 -3 -510 -4
-537 -24 -15 -11 -37 -33 -48 -48 -21 -27 -21 -28 -24 -1737 l-2 -1709 -160 0
-160 0 0 1920 0 1920 720 0 720 0 0 -160z"/>
<path d="M1440 2560 l0 -160 1040 0 1040 0 0 -621 0 -621 -40 -45 c-22 -25
-52 -70 -66 -99 l-26 -54 -428 0 -428 0 -27 55 c-37 76 -122 165 -193 203
-149 79 -305 81 -454 6 -70 -35 -168 -135 -202 -206 l-28 -58 -94 0 -94 0 0
-160 0 -160 94 0 94 0 28 -57 c34 -72 132 -172 202 -207 145 -73 299 -73 444
0 70 35 168 135 202 207 l28 57 428 0 428 0 28 -57 c34 -72 132 -172 202 -207
145 -73 299 -73 444 0 70 35 168 135 202 206 l28 57 203 3 c223 3 229 5 279
72 21 27 21 38 21 486 l0 458 -180 268 c-99 147 -193 277 -208 289 -27 19 -45
20 -297 23 l-269 3 -3 189 c-3 206 -6 215 -72 264 -27 21 -34 21 -1177 24
l-1149 2 0 -160z m2848 -720 l52 -80 -250 0 -250 0 0 80 0 80 198 0 197 0 53
-80z m192 -640 l0 -240 -94 0 -94 0 -27 55 c-65 133 -205 235 -354 258 l-71
11 0 78 0 78 320 0 320 0 0 -240z m-2337 -254 c103 -43 128 -177 48 -257 -65
-65 -157 -65 -222 0 -124 123 13 325 174 257z m1760 0 c103 -43 128 -177 48
-257 -65 -65 -157 -65 -222 0 -124 123 13 325 174 257z"/>
</g>
</svg>
