<?xml version="1.0" standalone="no"?>
<!DOCTYPE svg PUBLIC "-//W3C//DTD SVG 20010904//EN"
 "http://www.w3.org/TR/2001/REC-SVG-20010904/DTD/svg10.dtd">
<svg version="1.0" xmlns="http://www.w3.org/2000/svg"
 width="512.000000pt" height="512.000000pt" viewBox="0 0 512.000000 512.000000"
 preserveAspectRatio="xMidYMid meet">

<g transform="translate(0.000000,512.000000) scale(0.100000,-0.100000)"
fill="#000000" stroke="none">
<path d="M1184 5000 c-50 -15 -125 -71 -161 -118 -42 -56 -63 -128 -63 -218
l0 -73 -303 -3 -302 -3 -67 -33 c-78 -38 -129 -94 -159 -172 -19 -49 -19 -100
-19 -2029 0 -2230 -7 -2038 78 -2133 25 -27 68 -61 96 -76 l51 -27 2225 0
2225 0 50 27 c60 32 114 87 146 148 l24 45 3 1997 2 1997 -21 55 c-26 70 -92
139 -167 174 l-57 27 -301 3 -302 3 -4 93 c-5 109 -34 182 -98 240 -73 66
-114 81 -220 81 -106 0 -147 -15 -220 -81 -64 -58 -93 -131 -98 -241 l-4 -93
-318 0 -318 0 -4 93 c-5 110 -34 183 -98 241 -73 66 -114 81 -220 81 -106 0
-147 -15 -220 -81 -64 -58 -93 -131 -98 -241 l-4 -93 -318 0 -318 0 -4 93 c-3
76 -9 103 -31 149 -31 62 -84 116 -149 149 -48 25 -180 36 -234 19z m147 -216
c53 -27 59 -59 59 -304 0 -168 -3 -229 -14 -255 -15 -35 -59 -65 -96 -65 -37
0 -81 30 -96 65 -18 44 -20 454 -3 504 13 36 61 71 97 71 13 0 37 -7 53 -16z
m1280 0 c53 -27 59 -59 59 -304 0 -168 -3 -229 -14 -255 -15 -35 -59 -65 -96
-65 -37 0 -81 30 -96 65 -18 44 -20 454 -3 504 13 36 61 71 97 71 13 0 37 -7
53 -16z m1280 0 c53 -27 59 -59 59 -304 0 -168 -3 -229 -14 -255 -15 -35 -59
-65 -96 -65 -37 0 -81 30 -96 65 -18 44 -20 454 -3 504 13 36 61 71 97 71 13
0 37 -7 53 -16z m-2929 -507 c5 -110 34 -183 98 -241 73 -66 114 -81 220 -81
106 0 147 15 220 81 64 58 93 131 98 241 l4 93 318 0 318 0 4 -93 c5 -110 34
-183 98 -241 73 -66 114 -81 220 -81 106 0 147 15 220 81 64 58 93 131 98 241
l4 93 318 0 318 0 4 -93 c5 -110 34 -183 98 -241 73 -66 114 -81 220 -81 106
0 147 15 220 81 64 58 93 131 98 241 l4 93 279 0 c179 0 287 -4 302 -11 54
-24 57 -43 57 -348 l0 -281 -2240 0 -2240 0 0 281 c0 302 3 323 54 348 13 6
135 10 302 10 l282 1 4 -93z m3836 -2327 l-3 -1570 -28 -27 -27 -28 -2180 0
-2180 0 -27 28 -28 27 -3 1570 -2 1570 2240 0 2240 0 -2 -1570z"/>
<path d="M691 2866 c-48 -17 -108 -71 -134 -119 -20 -39 -22 -57 -25 -262 -3
-142 0 -238 8 -272 15 -71 57 -125 121 -157 53 -26 53 -26 299 -26 246 0 246
0 299 26 64 32 106 86 121 157 8 34 11 130 8 272 -3 204 -5 223 -25 261 -28
53 -91 107 -142 122 -53 16 -484 15 -530 -2z m474 -411 l0 -210 -205 0 -205 0
-3 200 c-1 110 0 205 3 212 3 11 48 13 207 11 l203 -3 0 -210z"/>
<path d="M1759 2866 c-56 -20 -96 -53 -126 -104 l-28 -47 -3 -247 c-3 -235 -2
-249 19 -297 23 -55 73 -105 125 -127 25 -11 93 -14 281 -14 277 0 297 4 360
71 59 63 63 83 63 354 0 184 -3 254 -13 278 -22 52 -68 98 -122 123 -48 23
-59 24 -285 23 -166 0 -246 -4 -271 -13z m476 -411 l0 -210 -210 0 -210 0 -3
199 c-2 139 1 203 9 212 10 12 50 14 213 12 l201 -3 0 -210z"/>
<path d="M2805 2857 c-54 -26 -100 -72 -122 -124 -10 -24 -13 -94 -13 -278 0
-271 4 -291 63 -354 63 -67 83 -71 360 -71 188 0 256 3 281 14 52 22 102 72
125 127 21 48 22 62 19 298 l-3 248 -30 49 c-19 30 -49 60 -79 79 l-49 30
-251 3 c-246 2 -252 2 -301 -21z m494 -201 c8 -9 11 -74 9 -212 l-3 -199 -210
0 -210 0 -3 200 c-1 110 0 205 2 212 8 20 399 19 415 -1z"/>
<path d="M3891 2866 c-48 -17 -108 -71 -134 -119 -20 -39 -22 -57 -25 -262 -3
-142 0 -238 8 -272 15 -71 57 -125 121 -157 53 -26 53 -26 299 -26 246 0 246
0 299 26 64 32 106 86 121 157 8 34 11 130 8 272 -3 204 -5 223 -25 261 -28
53 -91 107 -142 122 -53 16 -484 15 -530 -2z m474 -411 l0 -210 -205 0 -205 0
-3 200 c-1 110 0 205 3 212 3 11 48 13 207 11 l203 -3 0 -210z"/>
<path d="M661 1784 c-64 -32 -106 -86 -121 -157 -8 -34 -11 -130 -8 -272 4
-249 9 -270 88 -337 61 -53 92 -58 340 -58 248 0 279 5 340 58 79 67 84 88 88
337 3 142 0 238 -8 272 -16 72 -60 129 -123 159 -51 23 -59 24 -298 24 -245 0
-245 0 -298 -26z m504 -399 l0 -210 -205 0 -205 0 -3 200 c-1 110 0 205 3 212
3 11 48 13 207 11 l203 -3 0 -210z"/>
<path d="M1744 1796 c-51 -22 -100 -73 -123 -127 -21 -48 -22 -62 -19 -298 l3
-248 30 -49 c19 -30 49 -60 79 -79 l49 -30 248 -3 c236 -3 250 -2 298 19 55
23 105 73 127 125 11 25 14 93 14 281 0 277 -4 297 -71 360 -63 60 -82 63
-356 63 -185 -1 -256 -4 -279 -14z m491 -411 l0 -210 -199 -3 c-138 -2 -203 1
-212 9 -11 9 -14 53 -14 209 0 108 3 200 7 204 4 3 99 5 212 4 l206 -3 0 -210z"/>
<path d="M2805 1791 c-49 -23 -99 -74 -119 -123 -22 -51 -23 -511 -2 -562 22
-52 72 -102 127 -125 48 -21 62 -22 298 -19 l248 3 49 30 c30 19 60 49 79 79
l30 49 3 248 c3 236 2 250 -19 298 -23 55 -73 105 -125 127 -25 11 -93 14
-281 14 -220 0 -252 -3 -288 -19z m503 -395 c2 -139 -1 -203 -9 -212 -10 -12
-50 -14 -213 -12 l-201 3 -3 200 c-1 110 0 205 3 212 3 11 49 13 212 11 l208
-3 3 -199z"/>
<path d="M3861 1784 c-64 -32 -106 -86 -121 -157 -8 -34 -11 -130 -8 -272 4
-249 9 -270 88 -337 61 -53 92 -58 340 -58 248 0 279 5 340 58 79 67 84 88 88
337 3 142 0 238 -8 272 -16 72 -60 129 -123 159 -51 23 -59 24 -298 24 -245 0
-245 0 -298 -26z m504 -399 l0 -210 -205 0 -205 0 -3 200 c-1 110 0 205 3 212
3 11 48 13 207 11 l203 -3 0 -210z"/>
</g>
</svg>
