<?xml version="1.0" standalone="no"?>
<!DOCTYPE svg PUBLIC "-//W3C//DTD SVG 20010904//EN"
 "http://www.w3.org/TR/2001/REC-SVG-20010904/DTD/svg10.dtd">
<svg version="1.0" xmlns="http://www.w3.org/2000/svg"
 width="512.000000pt" height="512.000000pt" viewBox="0 0 512.000000 512.000000"
 preserveAspectRatio="xMidYMid meet">

<g transform="translate(0.000000,512.000000) scale(0.100000,-0.100000)"
fill="#000000" stroke="none">
<path d="M2175 5114 c-292 -45 -503 -285 -506 -573 -1 -82 18 -129 69 -171 94
-77 247 -48 301 58 10 20 22 65 26 99 18 155 157 237 293 172 58 -29 89 -79
105 -170 14 -79 33 -124 63 -150 78 -68 221 -64 286 8 30 33 48 91 48 155 -1
251 -175 480 -420 552 -56 17 -210 28 -265 20z"/>
<path d="M3785 4356 c-68 -30 -125 -115 -125 -186 0 -77 30 -114 313 -396 225
-225 280 -274 319 -289 121 -45 253 37 266 163 9 95 2 104 -297 406 -179 181
-290 285 -316 297 -47 22 -117 24 -160 5z"/>
<path d="M615 4340 c-56 -28 -579 -553 -600 -602 -40 -98 8 -212 110 -259 52
-24 99 -23 155 2 58 26 571 534 600 595 36 74 17 177 -41 231 -59 54 -154 68
-224 33z"/>
<path d="M2081 4079 c-780 -88 -1432 -567 -1700 -1248 -282 -716 -155 -1516
332 -2097 451 -537 1144 -805 1847 -713 100 13 153 34 188 74 40 45 56 97 49
157 -8 62 -38 112 -89 146 -48 31 -95 33 -272 14 -298 -34 -686 47 -971 202
-629 343 -944 1082 -779 1826 107 483 416 878 849 1085 327 157 735 213 1065
146 564 -114 1014 -489 1225 -1023 53 -132 91 -178 166 -198 120 -33 249 64
249 188 0 128 -200 517 -378 735 -81 99 -262 270 -360 340 -248 178 -545 299
-862 352 -115 19 -441 28 -559 14z"/>
<path d="M2199 3297 c-24 -13 -57 -43 -74 -66 l-30 -43 -3 -459 -3 -460 -34
-45 c-116 -151 -61 -371 114 -456 71 -35 178 -32 255 7 110 56 172 163 163
285 -4 69 -38 149 -76 184 -21 19 -21 24 -21 470 0 417 -2 454 -19 491 -48
103 -171 145 -272 92z"/>
<path d="M3542 2145 c-211 -59 -378 -235 -411 -432 -8 -47 -11 -250 -9 -673 3
-596 4 -606 25 -664 46 -119 114 -205 219 -276 164 -109 378 -129 537 -49 23
12 256 148 517 302 408 242 484 290 541 347 99 97 146 204 156 350 7 106 -13
195 -65 294 -67 129 -98 151 -645 474 -272 161 -519 303 -549 314 -70 28 -240
34 -316 13z m216 -409 c26 -14 243 -141 482 -284 486 -289 485 -288 478 -380
-4 -45 -10 -59 -39 -87 -19 -18 -241 -156 -494 -306 -439 -261 -462 -273 -512
-273 -56 -1 -89 17 -127 68 -21 27 -21 40 -24 592 -2 541 -2 567 17 609 36 81
130 107 219 61z"/>
</g>
</svg>
