<?xml version="1.0" standalone="no"?>
<!DOCTYPE svg PUBLIC "-//W3C//DTD SVG 20010904//EN"
 "http://www.w3.org/TR/2001/REC-SVG-20010904/DTD/svg10.dtd">
<svg version="1.0" xmlns="http://www.w3.org/2000/svg"
 width="512.000000pt" height="512.000000pt" viewBox="0 0 512.000000 512.000000"
 preserveAspectRatio="xMidYMid meet">

<g transform="translate(0.000000,512.000000) scale(0.100000,-0.100000)"
fill="#000000" stroke="none">
<path d="M2270 4835 c-810 -109 -1493 -623 -1815 -1367 -136 -316 -193 -619
-182 -982 6 -199 21 -313 63 -481 216 -861 913 -1524 1779 -1694 333 -65 706
-53 1039 34 665 174 1239 673 1516 1318 243 568 241 1235 -5 1803 -191 443
-522 820 -937 1067 -240 143 -493 236 -788 289 -151 27 -514 34 -670 13z m578
-1747 c460 -250 708 -391 729 -413 17 -18 37 -52 43 -74 14 -55 -1 -112 -43
-156 -21 -22 -270 -163 -731 -414 -687 -374 -701 -381 -756 -381 -47 0 -64 5
-97 29 -76 55 -73 15 -73 884 0 731 1 774 19 813 31 68 106 107 184 96 15 -3
341 -175 725 -384z"/>
</g>
</svg>
